<?xml version="1.0" encoding="UTF-8" standalone="no"?><!DOCTYPE svg PUBLIC "-//W3C//DTD SVG 1.1//EN" "http://www.w3.org/Graphics/SVG/1.1/DTD/svg11.dtd"><!-- Generated by graphviz version 2.40.1 (20161225.0304)
 --><!-- Title: G Pages: 1 --><svg xmlns="http://www.w3.org/2000/svg" xmlns:xlink="http://www.w3.org/1999/xlink" width="516pt" height="1196pt" viewBox="0.00 0.00 516.46 1196.00">
<g id="graph0" class="graph" transform="scale(1 1) rotate(0) translate(4 1192)">
<title>G</title>
<polygon fill="#ffffff" stroke="transparent" points="-4,4 -4,-1192 512.4556,-1192 512.4556,4 -4,4"/>
<!-- BinaryLogExpiration -->
<g id="node1" class="node">
<title>BinaryLogExpiration</title>
<ellipse fill="none" stroke="#000000" cx="93.641" cy="-522" rx="93.7823" ry="18"/>
<text text-anchor="middle" x="93.641" y="-517.8" font-family="Times,serif" font-size="14.00" fill="#000000">BinaryLogExpiration</text>
</g>
<!-- RootPwd -->
<g id="node2" class="node">
<title>RootPwd</title>
<ellipse fill="none" stroke="#000000" cx="154.641" cy="-450" rx="46.9709" ry="18"/>
<text text-anchor="middle" x="154.641" y="-445.8" font-family="Times,serif" font-size="14.00" fill="#000000">RootPwd</text>
</g>
<!-- BinaryLogExpiration&#45;&gt;RootPwd -->
<g id="edge1" class="edge">
<title>BinaryLogExpiration-&gt;RootPwd</title>
<path fill="none" stroke="#000000" d="M108.7197,-504.2022C116.1618,-495.4182 125.2662,-484.672 133.4,-475.0714"/>
<polygon fill="#000000" stroke="#000000" points="136.1526,-477.2369 139.9463,-467.3446 130.8117,-472.712 136.1526,-477.2369"/>
</g>
<!-- ReplicationPwd -->
<g id="node5" class="node">
<title>ReplicationPwd</title>
<ellipse fill="none" stroke="#000000" cx="205.641" cy="-378" rx="72.9508" ry="18"/>
<text text-anchor="middle" x="205.641" y="-373.8" font-family="Times,serif" font-size="14.00" fill="#000000">ReplicationPwd</text>
</g>
<!-- RootPwd&#45;&gt;ReplicationPwd -->
<g id="edge3" class="edge">
<title>RootPwd-&gt;ReplicationPwd</title>
<path fill="none" stroke="#000000" d="M166.9867,-432.5708C173.0356,-424.0312 180.4443,-413.5719 187.1515,-404.1029"/>
<polygon fill="#000000" stroke="#000000" points="190.1306,-405.9522 193.0548,-395.7689 184.4185,-401.9061 190.1306,-405.9522"/>
</g>
<!-- MariaDBOptions -->
<g id="node6" class="node">
<title>MariaDBOptions</title>
<ellipse fill="none" stroke="#000000" cx="154.641" cy="-306" rx="78.1675" ry="18"/>
<text text-anchor="middle" x="154.641" y="-301.8" font-family="Times,serif" font-size="14.00" fill="#000000">MariaDBOptions</text>
</g>
<!-- RootPwd&#45;&gt;MariaDBOptions -->
<g id="edge4" class="edge">
<title>RootPwd-&gt;MariaDBOptions</title>
<path fill="none" stroke="#000000" d="M141.4925,-432.5487C134.7147,-422.4479 127.1501,-409.1608 123.641,-396 119.519,-380.5401 119.519,-375.4599 123.641,-360 126.1771,-350.4884 130.8314,-340.9109 135.7762,-332.5179"/>
<polygon fill="#000000" stroke="#000000" points="138.8125,-334.2641 141.1692,-323.9347 132.8854,-330.5399 138.8125,-334.2641"/>
</g>
<!-- WorkDir -->
<g id="node3" class="node">
<title>WorkDir</title>
<ellipse fill="none" stroke="#000000" cx="154.641" cy="-810" rx="45.7867" ry="18"/>
<text text-anchor="middle" x="154.641" y="-805.8" font-family="Times,serif" font-size="14.00" fill="#000000">WorkDir</text>
</g>
<!-- Namespace -->
<g id="node4" class="node">
<title>Namespace</title>
<ellipse fill="none" stroke="#000000" cx="154.641" cy="-738" rx="55.5753" ry="18"/>
<text text-anchor="middle" x="154.641" y="-733.8" font-family="Times,serif" font-size="14.00" fill="#000000">Namespace</text>
</g>
<!-- WorkDir&#45;&gt;Namespace -->
<g id="edge2" class="edge">
<title>WorkDir-&gt;Namespace</title>
<path fill="none" stroke="#000000" d="M154.641,-791.8314C154.641,-784.131 154.641,-774.9743 154.641,-766.4166"/>
<polygon fill="#000000" stroke="#000000" points="158.1411,-766.4132 154.641,-756.4133 151.1411,-766.4133 158.1411,-766.4132"/>
</g>
<!-- ReleaseName -->
<g id="node7" class="node">
<title>ReleaseName</title>
<ellipse fill="none" stroke="#000000" cx="154.641" cy="-666" rx="64.2398" ry="18"/>
<text text-anchor="middle" x="154.641" y="-661.8" font-family="Times,serif" font-size="14.00" fill="#000000">ReleaseName</text>
</g>
<!-- Namespace&#45;&gt;ReleaseName -->
<g id="edge19" class="edge">
<title>Namespace-&gt;ReleaseName</title>
<path fill="none" stroke="#000000" d="M154.641,-719.8314C154.641,-712.131 154.641,-702.9743 154.641,-694.4166"/>
<polygon fill="#000000" stroke="#000000" points="158.1411,-694.4132 154.641,-684.4133 151.1411,-694.4133 158.1411,-694.4132"/>
</g>
<!-- ReplicationPwd&#45;&gt;MariaDBOptions -->
<g id="edge12" class="edge">
<title>ReplicationPwd-&gt;MariaDBOptions</title>
<path fill="none" stroke="#000000" d="M193.0343,-360.2022C187.027,-351.7214 179.7242,-341.4115 173.107,-332.0696"/>
<polygon fill="#000000" stroke="#000000" points="175.9158,-329.9797 167.2795,-323.8425 170.2036,-334.0259 175.9158,-329.9797"/>
</g>
<!-- Finish -->
<g id="node14" class="node">
<title>Finish</title>
<ellipse fill="none" stroke="#000000" cx="161.641" cy="-18" rx="35.3703" ry="18"/>
<text text-anchor="middle" x="161.641" y="-13.8" font-family="Times,serif" font-size="14.00" fill="#000000">Finish</text>
</g>
<!-- MariaDBOptions&#45;&gt;Finish -->
<g id="edge24" class="edge">
<title>MariaDBOptions-&gt;Finish</title>
<path fill="none" stroke="#000000" d="M147.2036,-287.8353C143.3297,-277.5113 138.9334,-264.2386 136.641,-252 121.9015,-173.308 108.4811,-149.2136 129.641,-72 132.3772,-62.0155 137.4894,-52.005 142.8373,-43.3628"/>
<polygon fill="#000000" stroke="#000000" points="145.827,-45.1866 148.406,-34.9104 139.9816,-41.3354 145.827,-45.1866"/>
</g>
<!-- CharacterSet -->
<g id="node20" class="node">
<title>CharacterSet</title>
<ellipse fill="none" stroke="#000000" cx="206.641" cy="-234" rx="60.8082" ry="18"/>
<text text-anchor="middle" x="206.641" y="-229.8" font-family="Times,serif" font-size="14.00" fill="#000000">CharacterSet</text>
</g>
<!-- MariaDBOptions&#45;&gt;CharacterSet -->
<g id="edge23" class="edge">
<title>MariaDBOptions-&gt;CharacterSet</title>
<path fill="none" stroke="#000000" d="M167.495,-288.2022C173.6201,-279.7214 181.066,-269.4115 187.813,-260.0696"/>
<polygon fill="#000000" stroke="#000000" points="190.7372,-261.9986 193.7548,-251.8425 185.0624,-257.9001 190.7372,-261.9986"/>
</g>
<!-- ReplicaCount -->
<g id="node8" class="node">
<title>ReplicaCount</title>
<ellipse fill="none" stroke="#000000" cx="154.641" cy="-594" rx="64.2843" ry="18"/>
<text text-anchor="middle" x="154.641" y="-589.8" font-family="Times,serif" font-size="14.00" fill="#000000">ReplicaCount</text>
</g>
<!-- ReleaseName&#45;&gt;ReplicaCount -->
<g id="edge5" class="edge">
<title>ReleaseName-&gt;ReplicaCount</title>
<path fill="none" stroke="#000000" d="M154.641,-647.8314C154.641,-640.131 154.641,-630.9743 154.641,-622.4166"/>
<polygon fill="#000000" stroke="#000000" points="158.1411,-622.4132 154.641,-612.4133 151.1411,-622.4133 158.1411,-622.4132"/>
</g>
<!-- ReplicaCount&#45;&gt;BinaryLogExpiration -->
<g id="edge13" class="edge">
<title>ReplicaCount-&gt;BinaryLogExpiration</title>
<path fill="none" stroke="#000000" d="M139.5624,-576.2022C132.2306,-567.5483 123.2853,-556.99 115.2442,-547.4988"/>
<polygon fill="#000000" stroke="#000000" points="117.8923,-545.2099 108.7576,-539.8425 112.5514,-549.7349 117.8923,-545.2099"/>
</g>
<!-- ReplicaCount&#45;&gt;RootPwd -->
<g id="edge14" class="edge">
<title>ReplicaCount-&gt;RootPwd</title>
<path fill="none" stroke="#000000" d="M173.2513,-576.3683C182.1795,-566.6119 191.9386,-553.7054 196.641,-540 201.8336,-524.866 201.8336,-519.134 196.641,-504 192.9606,-493.2733 186.1827,-483.036 179.13,-474.4154"/>
<polygon fill="#000000" stroke="#000000" points="181.5904,-471.9117 172.376,-466.6823 176.3181,-476.5165 181.5904,-471.9117"/>
</g>
<!-- PrequisitesNotMet -->
<g id="node9" class="node">
<title>PrequisitesNotMet</title>
<ellipse fill="none" stroke="#000000" cx="301.641" cy="-810" rx="83.4002" ry="18"/>
<text text-anchor="middle" x="301.641" y="-805.8" font-family="Times,serif" font-size="14.00" fill="#000000">PrequisitesNotMet</text>
</g>
<!-- Abort -->
<g id="node10" class="node">
<title>Abort</title>
<ellipse fill="none" stroke="#000000" cx="356.641" cy="-738" rx="33.6266" ry="18"/>
<text text-anchor="middle" x="356.641" y="-733.8" font-family="Times,serif" font-size="14.00" fill="#000000">Abort</text>
</g>
<!-- PrequisitesNotMet&#45;&gt;Abort -->
<g id="edge6" class="edge">
<title>PrequisitesNotMet-&gt;Abort</title>
<path fill="none" stroke="#000000" d="M315.2366,-792.2022C321.9287,-783.4416 330.1117,-772.7293 337.4306,-763.1482"/>
<polygon fill="#000000" stroke="#000000" points="340.2916,-765.1686 343.5807,-755.0972 334.7289,-760.9193 340.2916,-765.1686"/>
</g>
<!-- DeploymentMethod -->
<g id="node11" class="node">
<title>DeploymentMethod</title>
<ellipse fill="none" stroke="#000000" cx="419.641" cy="-1098" rx="88.6294" ry="18"/>
<text text-anchor="middle" x="419.641" y="-1093.8" font-family="Times,serif" font-size="14.00" fill="#000000">DeploymentMethod</text>
</g>
<!-- Prerequisites -->
<g id="node12" class="node">
<title>Prerequisites</title>
<ellipse fill="none" stroke="#000000" cx="419.641" cy="-1026" rx="60.8274" ry="18"/>
<text text-anchor="middle" x="419.641" y="-1021.8" font-family="Times,serif" font-size="14.00" fill="#000000">Prerequisites</text>
</g>
<!-- DeploymentMethod&#45;&gt;Prerequisites -->
<g id="edge7" class="edge">
<title>DeploymentMethod-&gt;Prerequisites</title>
<path fill="none" stroke="#000000" d="M419.641,-1079.8314C419.641,-1072.131 419.641,-1062.9743 419.641,-1054.4166"/>
<polygon fill="#000000" stroke="#000000" points="423.1411,-1054.4132 419.641,-1044.4133 416.1411,-1054.4133 423.1411,-1054.4132"/>
</g>
<!-- Prerequisites&#45;&gt;PrequisitesNotMet -->
<g id="edge20" class="edge">
<title>Prerequisites-&gt;PrequisitesNotMet</title>
<path fill="none" stroke="#000000" d="M431.8993,-1008.1533C452.1367,-976.2617 487.3035,-908.655 455.641,-864 445.0807,-849.1063 406.1207,-835.5222 370.0331,-825.704"/>
<polygon fill="#000000" stroke="#000000" points="370.5194,-822.2122 359.9567,-823.0366 368.7281,-828.9792 370.5194,-822.2122"/>
</g>
<!-- ChooseContext -->
<g id="node16" class="node">
<title>ChooseContext</title>
<ellipse fill="none" stroke="#000000" cx="365.641" cy="-954" rx="70.6684" ry="18"/>
<text text-anchor="middle" x="365.641" y="-949.8" font-family="Times,serif" font-size="14.00" fill="#000000">ChooseContext</text>
</g>
<!-- Prerequisites&#45;&gt;ChooseContext -->
<g id="edge21" class="edge">
<title>Prerequisites-&gt;ChooseContext</title>
<path fill="none" stroke="#000000" d="M406.2927,-1008.2022C399.9321,-999.7214 392.1997,-989.4115 385.1932,-980.0696"/>
<polygon fill="#000000" stroke="#000000" points="387.823,-977.7426 379.023,-971.8425 382.223,-981.9426 387.823,-977.7426"/>
</g>
<!-- TableNameCase -->
<g id="node13" class="node">
<title>TableNameCase</title>
<ellipse fill="none" stroke="#000000" cx="213.641" cy="-90" rx="74.6956" ry="18"/>
<text text-anchor="middle" x="213.641" y="-85.8" font-family="Times,serif" font-size="14.00" fill="#000000">TableNameCase</text>
</g>
<!-- TableNameCase&#45;&gt;Finish -->
<g id="edge8" class="edge">
<title>TableNameCase-&gt;Finish</title>
<path fill="none" stroke="#000000" d="M200.7871,-72.2022C194.5239,-63.5301 186.8795,-52.9455 180.0136,-43.4389"/>
<polygon fill="#000000" stroke="#000000" points="182.6814,-41.1548 173.989,-35.0972 177.0066,-45.2533 182.6814,-41.1548"/>
</g>
<!-- Collation -->
<g id="node15" class="node">
<title>Collation</title>
<ellipse fill="none" stroke="#000000" cx="209.641" cy="-162" rx="46.967" ry="18"/>
<text text-anchor="middle" x="209.641" y="-157.8" font-family="Times,serif" font-size="14.00" fill="#000000">Collation</text>
</g>
<!-- Collation&#45;&gt;TableNameCase -->
<g id="edge9" class="edge">
<title>Collation-&gt;TableNameCase</title>
<path fill="none" stroke="#000000" d="M210.6504,-143.8314C211.0782,-136.131 211.5869,-126.9743 212.0623,-118.4166"/>
<polygon fill="#000000" stroke="#000000" points="215.5579,-118.592 212.6181,-108.4133 208.5687,-118.2037 215.5579,-118.592"/>
</g>
<!-- HandleNoContext -->
<g id="node17" class="node">
<title>HandleNoContext</title>
<ellipse fill="none" stroke="#000000" cx="365.641" cy="-882" rx="81.1033" ry="18"/>
<text text-anchor="middle" x="365.641" y="-877.8" font-family="Times,serif" font-size="14.00" fill="#000000">HandleNoContext</text>
</g>
<!-- ChooseContext&#45;&gt;HandleNoContext -->
<g id="edge10" class="edge">
<title>ChooseContext-&gt;HandleNoContext</title>
<path fill="none" stroke="#000000" d="M365.641,-935.8314C365.641,-928.131 365.641,-918.9743 365.641,-910.4166"/>
<polygon fill="#000000" stroke="#000000" points="369.1411,-910.4132 365.641,-900.4133 362.1411,-910.4133 369.1411,-910.4132"/>
</g>
<!-- SelectContext -->
<g id="node18" class="node">
<title>SelectContext</title>
<ellipse fill="none" stroke="#000000" cx="200.641" cy="-882" rx="65.4246" ry="18"/>
<text text-anchor="middle" x="200.641" y="-877.8" font-family="Times,serif" font-size="14.00" fill="#000000">SelectContext</text>
</g>
<!-- ChooseContext&#45;&gt;SelectContext -->
<g id="edge11" class="edge">
<title>ChooseContext-&gt;SelectContext</title>
<path fill="none" stroke="#000000" d="M329.8385,-938.3771C304.9363,-927.5107 271.5703,-912.951 244.9844,-901.3498"/>
<polygon fill="#000000" stroke="#000000" points="246.0898,-898.0135 235.5246,-897.2219 243.2901,-904.4293 246.0898,-898.0135"/>
</g>
<!-- HandleNoContext&#45;&gt;Abort -->
<g id="edge18" class="edge">
<title>HandleNoContext-&gt;Abort</title>
<path fill="none" stroke="#000000" d="M377.8227,-863.882C383.8726,-853.7891 390.5388,-840.7221 393.641,-828 397.4315,-812.4555 398.3748,-807.2837 393.641,-792 390.4132,-781.5784 384.4031,-771.3793 378.1514,-762.7013"/>
<polygon fill="#000000" stroke="#000000" points="380.78,-760.3777 371.9132,-754.5784 375.2282,-764.6413 380.78,-760.3777"/>
</g>
<!-- SelectContext&#45;&gt;WorkDir -->
<g id="edge16" class="edge">
<title>SelectContext-&gt;WorkDir</title>
<path fill="none" stroke="#000000" d="M189.2703,-864.2022C183.8669,-855.7448 177.3015,-845.4685 171.3461,-836.147"/>
<polygon fill="#000000" stroke="#000000" points="174.2144,-834.1356 165.881,-827.593 168.3155,-837.9044 174.2144,-834.1356"/>
</g>
<!-- SelectContext&#45;&gt;PrequisitesNotMet -->
<g id="edge15" class="edge">
<title>SelectContext-&gt;PrequisitesNotMet</title>
<path fill="none" stroke="#000000" d="M224.3211,-865.1192C237.6758,-855.599 254.5558,-843.5657 269.1343,-833.1731"/>
<polygon fill="#000000" stroke="#000000" points="271.2968,-835.9299 277.4079,-827.2751 267.2334,-830.2299 271.2968,-835.9299"/>
</g>
<!-- Welcome -->
<g id="node19" class="node">
<title>Welcome</title>
<ellipse fill="none" stroke="#000000" cx="419.641" cy="-1170" rx="48.0723" ry="18"/>
<text text-anchor="middle" x="419.641" y="-1165.8" font-family="Times,serif" font-size="14.00" fill="#000000">Welcome</text>
</g>
<!-- Welcome&#45;&gt;DeploymentMethod -->
<g id="edge17" class="edge">
<title>Welcome-&gt;DeploymentMethod</title>
<path fill="none" stroke="#000000" d="M419.641,-1151.8314C419.641,-1144.131 419.641,-1134.9743 419.641,-1126.4166"/>
<polygon fill="#000000" stroke="#000000" points="423.1411,-1126.4132 419.641,-1116.4133 416.1411,-1126.4133 423.1411,-1126.4132"/>
</g>
<!-- CharacterSet&#45;&gt;Collation -->
<g id="edge22" class="edge">
<title>CharacterSet-&gt;Collation</title>
<path fill="none" stroke="#000000" d="M207.3981,-215.8314C207.7189,-208.131 208.1004,-198.9743 208.457,-190.4166"/>
<polygon fill="#000000" stroke="#000000" points="211.9544,-190.5503 208.8738,-180.4133 204.9605,-190.2589 211.9544,-190.5503"/>
</g>
</g>
</svg>