<?xml version="1.0" encoding="UTF-8" standalone="no"?><!DOCTYPE svg PUBLIC "-//W3C//DTD SVG 1.1//EN" "http://www.w3.org/Graphics/SVG/1.1/DTD/svg11.dtd"><!-- Generated by graphviz version 2.40.1 (20161225.0304)
 --><!-- Title: G Pages: 1 --><svg xmlns="http://www.w3.org/2000/svg" xmlns:xlink="http://www.w3.org/1999/xlink" width="440pt" height="1196pt" viewBox="0.00 0.00 439.90 1196.00">
<g id="graph0" class="graph" transform="scale(1 1) rotate(0) translate(4 1192)">
<title>G</title>
<polygon fill="#ffffff" stroke="transparent" points="-4,4 -4,-1192 435.8982,-1192 435.8982,4 -4,4"/>
<!-- Welcome -->
<g id="node1" class="node">
<title>Welcome</title>
<ellipse fill="none" stroke="#0000ff" cx="343.0837" cy="-1170" rx="48.0723" ry="18"/>
<text text-anchor="middle" x="343.0837" y="-1165.8" font-family="Times,serif" font-size="14.00" fill="#000000">Welcome</text>
</g>
<!-- DeploymentMethod -->
<g id="node2" class="node">
<title>DeploymentMethod</title>
<ellipse fill="none" stroke="#0000ff" cx="343.0837" cy="-1098" rx="88.6294" ry="18"/>
<text text-anchor="middle" x="343.0837" y="-1093.8" font-family="Times,serif" font-size="14.00" fill="#000000">DeploymentMethod</text>
</g>
<!-- Welcome&#45;&gt;DeploymentMethod -->
<g id="edge1" class="edge">
<title>Welcome-&gt;DeploymentMethod</title>
<path fill="none" stroke="#0000ff" d="M343.0837,-1151.8314C343.0837,-1144.131 343.0837,-1134.9743 343.0837,-1126.4166"/>
<polygon fill="#0000ff" stroke="#0000ff" points="346.5838,-1126.4132 343.0837,-1116.4133 339.5838,-1126.4133 346.5838,-1126.4132"/>
</g>
<!-- Prerequisites -->
<g id="node3" class="node">
<title>Prerequisites</title>
<ellipse fill="none" stroke="#0000ff" cx="343.0837" cy="-1026" rx="60.8274" ry="18"/>
<text text-anchor="middle" x="343.0837" y="-1021.8" font-family="Times,serif" font-size="14.00" fill="#000000">Prerequisites</text>
</g>
<!-- DeploymentMethod&#45;&gt;Prerequisites -->
<g id="edge2" class="edge">
<title>DeploymentMethod-&gt;Prerequisites</title>
<path fill="none" stroke="#0000ff" d="M343.0837,-1079.8314C343.0837,-1072.131 343.0837,-1062.9743 343.0837,-1054.4166"/>
<polygon fill="#0000ff" stroke="#0000ff" points="346.5838,-1054.4132 343.0837,-1044.4133 339.5838,-1054.4133 346.5838,-1054.4132"/>
</g>
<!-- ChooseContext -->
<g id="node4" class="node">
<title>ChooseContext</title>
<ellipse fill="none" stroke="#0000ff" cx="289.0837" cy="-954" rx="70.6684" ry="18"/>
<text text-anchor="middle" x="289.0837" y="-949.8" font-family="Times,serif" font-size="14.00" fill="#000000">ChooseContext</text>
</g>
<!-- Prerequisites&#45;&gt;ChooseContext -->
<g id="edge3" class="edge">
<title>Prerequisites-&gt;ChooseContext</title>
<path fill="none" stroke="#0000ff" d="M329.7354,-1008.2022C323.3747,-999.7214 315.6424,-989.4115 308.6359,-980.0696"/>
<polygon fill="#0000ff" stroke="#0000ff" points="311.2657,-977.7426 302.4656,-971.8425 305.6657,-981.9426 311.2657,-977.7426"/>
</g>
<!-- PrequisitesNotMet -->
<g id="node15" class="node">
<title>PrequisitesNotMet</title>
<ellipse fill="none" stroke="#000000" cx="225.0837" cy="-810" rx="83.4002" ry="18"/>
<text text-anchor="middle" x="225.0837" y="-805.8" font-family="Times,serif" font-size="14.00" fill="#000000">PrequisitesNotMet</text>
</g>
<!-- Prerequisites&#45;&gt;PrequisitesNotMet -->
<g id="edge14" class="edge">
<title>Prerequisites-&gt;PrequisitesNotMet</title>
<path fill="none" stroke="#000000" d="M355.3419,-1008.1533C375.5793,-976.2617 410.7462,-908.655 379.0837,-864 368.5234,-849.1063 329.5633,-835.5222 293.4758,-825.704"/>
<polygon fill="#000000" stroke="#000000" points="293.9621,-822.2122 283.3994,-823.0366 292.1708,-828.9792 293.9621,-822.2122"/>
</g>
<!-- SelectContext -->
<g id="node5" class="node">
<title>SelectContext</title>
<ellipse fill="none" stroke="#0000ff" cx="124.0837" cy="-882" rx="65.4246" ry="18"/>
<text text-anchor="middle" x="124.0837" y="-877.8" font-family="Times,serif" font-size="14.00" fill="#000000">SelectContext</text>
</g>
<!-- ChooseContext&#45;&gt;SelectContext -->
<g id="edge4" class="edge">
<title>ChooseContext-&gt;SelectContext</title>
<path fill="none" stroke="#0000ff" d="M253.2812,-938.3771C228.379,-927.5107 195.013,-912.951 168.4271,-901.3498"/>
<polygon fill="#0000ff" stroke="#0000ff" points="169.5325,-898.0135 158.9672,-897.2219 166.7328,-904.4293 169.5325,-898.0135"/>
</g>
<!-- HandleNoContext -->
<g id="node20" class="node">
<title>HandleNoContext</title>
<ellipse fill="none" stroke="#000000" cx="289.0837" cy="-882" rx="81.1033" ry="18"/>
<text text-anchor="middle" x="289.0837" y="-877.8" font-family="Times,serif" font-size="14.00" fill="#000000">HandleNoContext</text>
</g>
<!-- ChooseContext&#45;&gt;HandleNoContext -->
<g id="edge23" class="edge">
<title>ChooseContext-&gt;HandleNoContext</title>
<path fill="none" stroke="#000000" d="M289.0837,-935.8314C289.0837,-928.131 289.0837,-918.9743 289.0837,-910.4166"/>
<polygon fill="#000000" stroke="#000000" points="292.5838,-910.4132 289.0837,-900.4133 285.5838,-910.4133 292.5838,-910.4132"/>
</g>
<!-- WorkDir -->
<g id="node6" class="node">
<title>WorkDir</title>
<ellipse fill="none" stroke="#0000ff" cx="78.0837" cy="-810" rx="45.7867" ry="18"/>
<text text-anchor="middle" x="78.0837" y="-805.8" font-family="Times,serif" font-size="14.00" fill="#000000">WorkDir</text>
</g>
<!-- SelectContext&#45;&gt;WorkDir -->
<g id="edge5" class="edge">
<title>SelectContext-&gt;WorkDir</title>
<path fill="none" stroke="#0000ff" d="M112.7129,-864.2022C107.3095,-855.7448 100.7441,-845.4685 94.7887,-836.147"/>
<polygon fill="#0000ff" stroke="#0000ff" points="97.6571,-834.1356 89.3237,-827.593 91.7582,-837.9044 97.6571,-834.1356"/>
</g>
<!-- SelectContext&#45;&gt;PrequisitesNotMet -->
<g id="edge18" class="edge">
<title>SelectContext-&gt;PrequisitesNotMet</title>
<path fill="none" stroke="#000000" d="M147.7637,-865.1192C161.1185,-855.599 177.9985,-843.5657 192.577,-833.1731"/>
<polygon fill="#000000" stroke="#000000" points="194.7394,-835.9299 200.8505,-827.2751 190.6761,-830.2299 194.7394,-835.9299"/>
</g>
<!-- Namespace -->
<g id="node7" class="node">
<title>Namespace</title>
<ellipse fill="none" stroke="#0000ff" cx="78.0837" cy="-738" rx="55.5753" ry="18"/>
<text text-anchor="middle" x="78.0837" y="-733.8" font-family="Times,serif" font-size="14.00" fill="#000000">Namespace</text>
</g>
<!-- WorkDir&#45;&gt;Namespace -->
<g id="edge6" class="edge">
<title>WorkDir-&gt;Namespace</title>
<path fill="none" stroke="#0000ff" d="M78.0837,-791.8314C78.0837,-784.131 78.0837,-774.9743 78.0837,-766.4166"/>
<polygon fill="#0000ff" stroke="#0000ff" points="81.5838,-766.4132 78.0837,-756.4133 74.5838,-766.4133 81.5838,-766.4132"/>
</g>
<!-- ReleaseName -->
<g id="node8" class="node">
<title>ReleaseName</title>
<ellipse fill="none" stroke="#0000ff" cx="78.0837" cy="-666" rx="64.2398" ry="18"/>
<text text-anchor="middle" x="78.0837" y="-661.8" font-family="Times,serif" font-size="14.00" fill="#000000">ReleaseName</text>
</g>
<!-- Namespace&#45;&gt;ReleaseName -->
<g id="edge7" class="edge">
<title>Namespace-&gt;ReleaseName</title>
<path fill="none" stroke="#0000ff" d="M78.0837,-719.8314C78.0837,-712.131 78.0837,-702.9743 78.0837,-694.4166"/>
<polygon fill="#0000ff" stroke="#0000ff" points="81.5838,-694.4132 78.0837,-684.4133 74.5838,-694.4133 81.5838,-694.4132"/>
</g>
<!-- ReplicaCount -->
<g id="node9" class="node">
<title>ReplicaCount</title>
<ellipse fill="none" stroke="#0000ff" cx="78.0837" cy="-594" rx="64.2843" ry="18"/>
<text text-anchor="middle" x="78.0837" y="-589.8" font-family="Times,serif" font-size="14.00" fill="#000000">ReplicaCount</text>
</g>
<!-- ReleaseName&#45;&gt;ReplicaCount -->
<g id="edge8" class="edge">
<title>ReleaseName-&gt;ReplicaCount</title>
<path fill="none" stroke="#0000ff" d="M78.0837,-647.8314C78.0837,-640.131 78.0837,-630.9743 78.0837,-622.4166"/>
<polygon fill="#0000ff" stroke="#0000ff" points="81.5838,-622.4132 78.0837,-612.4133 74.5838,-622.4133 81.5838,-622.4132"/>
</g>
<!-- BinaryLogExpiration -->
<g id="node10" class="node">
<title>BinaryLogExpiration</title>
<ellipse fill="none" stroke="#0000ff" cx="139.0837" cy="-522" rx="93.7823" ry="18"/>
<text text-anchor="middle" x="139.0837" y="-517.8" font-family="Times,serif" font-size="14.00" fill="#000000">BinaryLogExpiration</text>
</g>
<!-- ReplicaCount&#45;&gt;BinaryLogExpiration -->
<g id="edge9" class="edge">
<title>ReplicaCount-&gt;BinaryLogExpiration</title>
<path fill="none" stroke="#0000ff" d="M93.1624,-576.2022C100.4942,-567.5483 109.4394,-556.99 117.4805,-547.4988"/>
<polygon fill="#0000ff" stroke="#0000ff" points="120.1734,-549.7349 123.9671,-539.8425 114.8324,-545.2099 120.1734,-549.7349"/>
</g>
<!-- RootPwd -->
<g id="node11" class="node">
<title>RootPwd</title>
<ellipse fill="none" stroke="#0000ff" cx="78.0837" cy="-450" rx="46.9709" ry="18"/>
<text text-anchor="middle" x="78.0837" y="-445.8" font-family="Times,serif" font-size="14.00" fill="#000000">RootPwd</text>
</g>
<!-- ReplicaCount&#45;&gt;RootPwd -->
<g id="edge21" class="edge">
<title>ReplicaCount-&gt;RootPwd</title>
<path fill="none" stroke="#000000" d="M59.4735,-576.3683C50.5453,-566.6119 40.7862,-553.7054 36.0837,-540 30.8911,-524.866 30.8911,-519.134 36.0837,-504 39.7641,-493.2733 46.542,-483.036 53.5948,-474.4154"/>
<polygon fill="#000000" stroke="#000000" points="56.4067,-476.5165 60.3487,-466.6823 51.1344,-471.9117 56.4067,-476.5165"/>
</g>
<!-- BinaryLogExpiration&#45;&gt;RootPwd -->
<g id="edge10" class="edge">
<title>BinaryLogExpiration-&gt;RootPwd</title>
<path fill="none" stroke="#0000ff" d="M124.0051,-504.2022C116.563,-495.4182 107.4586,-484.672 99.3248,-475.0714"/>
<polygon fill="#0000ff" stroke="#0000ff" points="101.9131,-472.712 92.7784,-467.3446 96.5722,-477.2369 101.9131,-472.712"/>
</g>
<!-- ReplicationPwd -->
<g id="node12" class="node">
<title>ReplicationPwd</title>
<ellipse fill="none" stroke="#0000ff" cx="129.0837" cy="-378" rx="72.9508" ry="18"/>
<text text-anchor="middle" x="129.0837" y="-373.8" font-family="Times,serif" font-size="14.00" fill="#000000">ReplicationPwd</text>
</g>
<!-- RootPwd&#45;&gt;ReplicationPwd -->
<g id="edge11" class="edge">
<title>RootPwd-&gt;ReplicationPwd</title>
<path fill="none" stroke="#0000ff" d="M90.4294,-432.5708C96.4782,-424.0312 103.887,-413.5719 110.5941,-404.1029"/>
<polygon fill="#0000ff" stroke="#0000ff" points="113.5733,-405.9522 116.4974,-395.7689 107.8611,-401.9061 113.5733,-405.9522"/>
</g>
<!-- MariaDBOptions -->
<g id="node13" class="node">
<title>MariaDBOptions</title>
<ellipse fill="none" stroke="#0000ff" cx="78.0837" cy="-306" rx="78.1675" ry="18"/>
<text text-anchor="middle" x="78.0837" y="-301.8" font-family="Times,serif" font-size="14.00" fill="#000000">MariaDBOptions</text>
</g>
<!-- RootPwd&#45;&gt;MariaDBOptions -->
<g id="edge20" class="edge">
<title>RootPwd-&gt;MariaDBOptions</title>
<path fill="none" stroke="#000000" d="M64.9352,-432.5487C58.1573,-422.4479 50.5928,-409.1608 47.0837,-396 42.9616,-380.5401 42.9616,-375.4599 47.0837,-360 49.6198,-350.4884 54.2741,-340.9109 59.2188,-332.5179"/>
<polygon fill="#000000" stroke="#000000" points="62.2552,-334.2641 64.6118,-323.9347 56.328,-330.5399 62.2552,-334.2641"/>
</g>
<!-- ReplicationPwd&#45;&gt;MariaDBOptions -->
<g id="edge12" class="edge">
<title>ReplicationPwd-&gt;MariaDBOptions</title>
<path fill="none" stroke="#0000ff" d="M116.477,-360.2022C110.4697,-351.7214 103.1669,-341.4115 96.5497,-332.0696"/>
<polygon fill="#0000ff" stroke="#0000ff" points="99.3585,-329.9797 90.7222,-323.8425 93.6463,-334.0259 99.3585,-329.9797"/>
</g>
<!-- Finish -->
<g id="node14" class="node">
<title>Finish</title>
<ellipse fill="none" stroke="#0000ff" cx="85.0837" cy="-18" rx="35.3703" ry="18"/>
<text text-anchor="middle" x="85.0837" y="-13.8" font-family="Times,serif" font-size="14.00" fill="#000000">Finish</text>
</g>
<!-- MariaDBOptions&#45;&gt;Finish -->
<g id="edge13" class="edge">
<title>MariaDBOptions-&gt;Finish</title>
<path fill="none" stroke="#0000ff" d="M70.6462,-287.8353C66.7724,-277.5113 62.3761,-264.2386 60.0837,-252 45.3441,-173.308 31.9238,-149.2136 53.0837,-72 55.8199,-62.0155 60.9321,-52.005 66.28,-43.3628"/>
<polygon fill="#0000ff" stroke="#0000ff" points="69.2697,-45.1866 71.8487,-34.9104 63.4243,-41.3354 69.2697,-45.1866"/>
</g>
<!-- CharacterSet -->
<g id="node16" class="node">
<title>CharacterSet</title>
<ellipse fill="none" stroke="#000000" cx="130.0837" cy="-234" rx="60.8082" ry="18"/>
<text text-anchor="middle" x="130.0837" y="-229.8" font-family="Times,serif" font-size="14.00" fill="#000000">CharacterSet</text>
</g>
<!-- MariaDBOptions&#45;&gt;CharacterSet -->
<g id="edge15" class="edge">
<title>MariaDBOptions-&gt;CharacterSet</title>
<path fill="none" stroke="#000000" d="M90.9376,-288.2022C97.0627,-279.7214 104.5087,-269.4115 111.2557,-260.0696"/>
<polygon fill="#000000" stroke="#000000" points="114.1799,-261.9986 117.1974,-251.8425 108.5051,-257.9001 114.1799,-261.9986"/>
</g>
<!-- Abort -->
<g id="node17" class="node">
<title>Abort</title>
<ellipse fill="none" stroke="#000000" cx="280.0837" cy="-738" rx="33.6266" ry="18"/>
<text text-anchor="middle" x="280.0837" y="-733.8" font-family="Times,serif" font-size="14.00" fill="#000000">Abort</text>
</g>
<!-- PrequisitesNotMet&#45;&gt;Abort -->
<g id="edge16" class="edge">
<title>PrequisitesNotMet-&gt;Abort</title>
<path fill="none" stroke="#000000" d="M238.6792,-792.2022C245.3714,-783.4416 253.5544,-772.7293 260.8732,-763.1482"/>
<polygon fill="#000000" stroke="#000000" points="263.7342,-765.1686 267.0233,-755.0972 258.1715,-760.9193 263.7342,-765.1686"/>
</g>
<!-- Collation -->
<g id="node19" class="node">
<title>Collation</title>
<ellipse fill="none" stroke="#000000" cx="133.0837" cy="-162" rx="46.967" ry="18"/>
<text text-anchor="middle" x="133.0837" y="-157.8" font-family="Times,serif" font-size="14.00" fill="#000000">Collation</text>
</g>
<!-- CharacterSet&#45;&gt;Collation -->
<g id="edge22" class="edge">
<title>CharacterSet-&gt;Collation</title>
<path fill="none" stroke="#000000" d="M130.8407,-215.8314C131.1616,-208.131 131.5431,-198.9743 131.8997,-190.4166"/>
<polygon fill="#000000" stroke="#000000" points="135.3971,-190.5503 132.3165,-180.4133 128.4031,-190.2589 135.3971,-190.5503"/>
</g>
<!-- TableNameCase -->
<g id="node18" class="node">
<title>TableNameCase</title>
<ellipse fill="none" stroke="#000000" cx="137.0837" cy="-90" rx="74.6956" ry="18"/>
<text text-anchor="middle" x="137.0837" y="-85.8" font-family="Times,serif" font-size="14.00" fill="#000000">TableNameCase</text>
</g>
<!-- TableNameCase&#45;&gt;Finish -->
<g id="edge17" class="edge">
<title>TableNameCase-&gt;Finish</title>
<path fill="none" stroke="#000000" d="M124.2298,-72.2022C117.9665,-63.5301 110.3221,-52.9455 103.4563,-43.4389"/>
<polygon fill="#000000" stroke="#000000" points="106.124,-41.1548 97.4317,-35.0972 100.4493,-45.2533 106.124,-41.1548"/>
</g>
<!-- Collation&#45;&gt;TableNameCase -->
<g id="edge19" class="edge">
<title>Collation-&gt;TableNameCase</title>
<path fill="none" stroke="#000000" d="M134.0931,-143.8314C134.5209,-136.131 135.0296,-126.9743 135.505,-118.4166"/>
<polygon fill="#000000" stroke="#000000" points="139.0006,-118.592 136.0607,-108.4133 132.0113,-118.2037 139.0006,-118.592"/>
</g>
<!-- HandleNoContext&#45;&gt;Abort -->
<g id="edge24" class="edge">
<title>HandleNoContext-&gt;Abort</title>
<path fill="none" stroke="#000000" d="M301.2654,-863.882C307.3152,-853.7891 313.9815,-840.7221 317.0837,-828 320.8741,-812.4555 321.8175,-807.2837 317.0837,-792 313.8559,-781.5784 307.8458,-771.3793 301.5941,-762.7013"/>
<polygon fill="#000000" stroke="#000000" points="304.2226,-760.3777 295.3559,-754.5784 298.6709,-764.6413 304.2226,-760.3777"/>
</g>
</g>
</svg>